<svg viewBox="0 0 300 352" fill="none" xmlns="http://www.w3.org/2000/svg">
  <path fill="#FA3D8B" d="M235.866 203.938C234.431 227.164 226.99 248.107 210.36 264.858C193.246 282.078 171.546 290.728 147.722 290.728C102.559 290.774 62.014 248.029 63.6821 202.436C63.9648 194.663 67.0852 189.658 74.7127 188.844C83.5593 187.921 87.2389 194.115 87.8333 201.607C89.2073 218.5 94.4798 233.53 106.538 245.746C124.043 263.45 144.837 268.691 168.333 260.916C192.216 253.003 205.712 235.736 210.219 211.179C210.812 207.974 211.031 204.689 211.545 201.45C212.793 193.818 216.335 187.921 224.977 188.907C233.324 189.861 236.351 196.18 235.882 203.922L235.866 203.938Z"/>
  <path fill="#FA3D8B" d="M259.549 205.173C258.564 210.303 257.083 215.59 250.125 214.683C243.76 213.823 245.196 208.739 245.227 204.5C245.291 189.971 240.016 181.431 229.08 178.21C218.268 175.018 208.893 180.007 201.575 193.569C198.878 198.589 195.382 201.123 190.345 198.621C185.633 196.259 186.272 191.848 187.864 187.234C193.09 172.11 207.004 162.13 223.478 162.13C246.038 162.13 263.76 183.216 259.549 205.173Z"/>
  <path fill="#FA3D8B" d="M230.545 78.3908C229.266 34.9566 193.635 0 150.001 0C106.364 0 70.7313 34.9582 69.4531 78.3908C30.1571 84.5516 0 118.711 0 159.8V269.581C0 315.019 36.8787 351.992 82.1997 351.992H217.8C263.12 351.992 300 315.019 300 269.581V159.8C300 118.713 269.845 84.5532 230.545 78.3908ZM150.001 30.3568C176.598 30.3568 198.439 51.1591 200.203 77.4034H99.7971C101.559 51.1751 123.386 30.3568 150.001 30.3568ZM269.718 269.595C269.718 298.297 246.427 321.648 217.8 321.648H82.1997C53.5717 321.648 30.2801 298.297 30.2801 269.595V159.798C30.2801 131.098 53.5717 107.746 82.1997 107.746H217.8C246.427 107.746 269.718 131.098 269.718 159.798V269.595Z"/>
</svg>
