<svg xmlns="http://www.w3.org/2000/svg" viewBox="0 0 125 146" fill="none">
  <path fill="#e3e5e6" d="M97.642 84.425c-.594 9.615-3.674 18.285-10.558 25.219-7.085 7.129-16.068 10.71-25.93 10.71-18.697.019-35.482-17.676-34.791-36.55.117-3.218 1.409-5.29 4.566-5.627 3.662-.383 5.186 2.182 5.432 5.283.569 6.993 2.751 13.215 7.743 18.273 7.246 7.329 15.855 9.498 25.582 6.28 9.886-3.276 15.473-10.424 17.34-20.59.245-1.327.335-2.687.548-4.028.517-3.16 1.983-5.6 5.56-5.192 3.456.394 4.71 3.01 4.515 6.216z"/>
  <path fill="#e3e5e6" d="M107.447 84.937c-.408 2.123-1.021 4.312-3.901 3.936-2.636-.356-2.041-2.46-2.028-4.215.026-6.015-2.157-9.55-6.685-10.884-4.475-1.321-8.357.745-11.386 6.359-1.116 2.078-2.564 3.127-4.65 2.091-1.95-.978-1.685-2.804-1.026-4.714 2.163-6.26 7.924-10.392 14.743-10.392 9.34 0 16.676 8.729 14.933 17.819"/>
  <path fill="#e3e5e6" d="M95.44 32.452C94.91 14.472 80.16 0 62.097 0 44.031 0 29.28 14.472 28.752 32.452 12.484 35.002 0 49.143 0 66.153V111.6c0 18.81 15.267 34.116 34.029 34.116h56.135c18.761 0 34.028-15.306 34.028-34.116V66.153c0-17.009-12.483-31.15-28.752-33.701M62.097 12.567c11.01 0 20.052 8.612 20.782 19.476H41.313c.73-10.858 9.766-19.476 20.783-19.476m49.56 99.039c0 11.881-9.643 21.548-21.493 21.548H34.029c-11.852 0-21.494-9.667-21.494-21.548V66.152c0-11.88 9.642-21.548 21.494-21.548h56.135c11.85 0 21.493 9.667 21.493 21.548z"/>
</svg>